<?xml version="1.0" standalone="no"?><!DOCTYPE svg PUBLIC "-//W3C//DTD SVG 1.1//EN" "http://www.w3.org/Graphics/SVG/1.1/DTD/svg11.dtd"><svg t="1653925781355" class="icon" viewBox="0 0 1256 1024" version="1.1" xmlns="http://www.w3.org/2000/svg" p-id="2924" xmlns:xlink="http://www.w3.org/1999/xlink" width="245.3125" height="200"><defs><style type="text/css">@font-face { font-family: feedback-iconfont; src: url("//at.alicdn.com/t/font_1031158_u69w8yhxdu.woff2?t=1630033759944") format("woff2"), url("//at.alicdn.com/t/font_1031158_u69w8yhxdu.woff?t=1630033759944") format("woff"), url("//at.alicdn.com/t/font_1031158_u69w8yhxdu.ttf?t=1630033759944") format("truetype"); }
</style></defs><path d="M86.574545 46.545455a40.029091 40.029091 0 0 0-40.02909 39.982545v711.307636a40.029091 40.029091 0 0 0 40.02909 39.982546H837.818182c5.585455 0 10.891636 1.954909 15.127273 5.632l131.584 112.733091 16.47709-98.909091A23.272727 23.272727 0 0 1 1024 837.818182h146.152727c22.062545 0 40.029091-17.966545 40.029091-39.982546V86.528A40.075636 40.075636 0 0 0 1170.152727 46.545455H86.574545z m898.97891 971.822545L829.207273 884.363636H86.574545A86.621091 86.621091 0 0 1 0 797.835636V86.528C0 38.818909 38.818909 0 86.574545 0h1083.578182C1217.908364 0 1256.727273 38.818909 1256.727273 86.528v711.307636A86.621091 86.621091 0 0 1 1170.152727 884.363636h-126.464l-20.014545 120.180364A23.458909 23.458909 0 0 1 1000.727273 1024a23.272727 23.272727 0 0 1-15.173818-5.632z" p-id="2925"></path><path d="M1064.727273 232.727273h-930.909091a23.272727 23.272727 0 0 1 0-46.545455h930.909091a23.272727 23.272727 0 0 1 0 46.545455M1041.454545 387.909818h-884.363636a23.272727 23.272727 0 0 1 0-46.545454h884.363636a23.272727 23.272727 0 0 1 0 46.545454M1041.454545 542.999273h-884.363636a23.272727 23.272727 0 0 1 0-46.545455h884.363636a23.272727 23.272727 0 0 1 0 46.545455M1041.454545 698.181818h-884.363636a23.272727 23.272727 0 0 1 0-46.545454h884.363636a23.272727 23.272727 0 0 1 0 46.545454" p-id="2926"></path></svg>