<?xml version="1.0" standalone="no"?><!DOCTYPE svg PUBLIC "-//W3C//DTD SVG 1.1//EN" "http://www.w3.org/Graphics/SVG/1.1/DTD/svg11.dtd"><svg t="1653925664042" class="icon" viewBox="0 0 1228 1024" version="1.1" xmlns="http://www.w3.org/2000/svg" p-id="1838" xmlns:xlink="http://www.w3.org/1999/xlink" width="239.84375" height="200"><defs><style type="text/css">@font-face { font-family: feedback-iconfont; src: url("//at.alicdn.com/t/font_1031158_u69w8yhxdu.woff2?t=1630033759944") format("woff2"), url("//at.alicdn.com/t/font_1031158_u69w8yhxdu.woff?t=1630033759944") format("woff"), url("//at.alicdn.com/t/font_1031158_u69w8yhxdu.ttf?t=1630033759944") format("truetype"); }
</style></defs><path d="M805.0688 198.314667H351.709867l135.5776-85.265067c21.162667-12.151467 25.3952-36.522667 12.6976-56.797867-12.6976-20.2752-38.0928-24.3712-59.323734-12.151466L186.436267 206.4384a36.386133 36.386133 0 0 0-16.930134 32.426667c0 12.219733 8.465067 24.3712 16.930134 32.494933l254.225066 162.338133c4.232533 8.192 12.6976 8.192 21.162667 8.192 12.765867 0 25.463467-8.192 33.928533-16.315733 12.6976-20.2752 8.465067-44.6464-12.6976-56.797867L343.2448 279.483733h461.824c186.436267 0 339.012267 146.090667 339.012267 324.676267s-152.576 324.676267-339.012267 324.676267H42.3936c-25.463467 0-42.3936 16.247467-42.3936 40.618666s16.930133 40.5504 42.325333 40.5504h762.743467C1038.1312 1010.005333 1228.8 827.392 1228.8 604.16c0-223.232-190.6688-405.845333-423.7312-405.845333z" p-id="1839"></path></svg>