<?xml version="1.0" standalone="no"?><!DOCTYPE svg PUBLIC "-//W3C//DTD SVG 1.1//EN" "http://www.w3.org/Graphics/SVG/1.1/DTD/svg11.dtd"><svg t="1653925800400" class="icon" viewBox="0 0 1024 1024" version="1.1" xmlns="http://www.w3.org/2000/svg" p-id="3338" xmlns:xlink="http://www.w3.org/1999/xlink" width="200" height="200"><defs><style type="text/css">@font-face { font-family: feedback-iconfont; src: url("//at.alicdn.com/t/font_1031158_u69w8yhxdu.woff2?t=1630033759944") format("woff2"), url("//at.alicdn.com/t/font_1031158_u69w8yhxdu.woff?t=1630033759944") format("woff"), url("//at.alicdn.com/t/font_1031158_u69w8yhxdu.ttf?t=1630033759944") format("truetype"); }
</style></defs><path d="M495.481513 475.089222a146.181299 146.181299 0 1 1 0-292.362598 146.181299 146.181299 0 0 1 0 292.362598m0-475.089222C270.873947 0 109.562884 185.540614 130.028266 401.998572c15.568308 165.002141 204.471092 476.002855 310.744896 597.150607 14.508494 16.555032 34.608423 24.850821 54.708351 24.850821 20.099929 0 40.199857-8.295789 54.708351-24.850821 106.273804-121.147752 295.176588-432.148465 310.744897-597.150607 20.428837-216.457959-140.845682-401.998572-365.453248-401.998572m0 511.634547c100.75546 0 182.726624-81.971163 182.726624-182.726624s-81.971163-182.726624-182.726624-182.726624-182.726624 81.971163-182.726624 182.726624 81.971163 182.726624 182.726624 182.726624m0-475.089222c96.370021 0 183.640257 37.605139 245.803855 105.871806 62.748323 68.997573 92.350036 159.958887 83.286795 256.146181-14.033405 148.629836-192.813133 452.175303-301.864383 576.502498a35.814418 35.814418 0 0 1-27.226267 12.388865 35.814418 35.814418 0 0 1-27.226267-12.388865c-109.051249-124.327195-287.830978-427.872662-301.864382-576.502498-9.063241-96.187295 20.538473-187.148608 83.286795-256.146181C311.804711 74.150464 399.074946 36.545325 495.481513 36.545325" p-id="3339"></path></svg>