<?xml version="1.0" standalone="no"?><!DOCTYPE svg PUBLIC "-//W3C//DTD SVG 1.1//EN" "http://www.w3.org/Graphics/SVG/1.1/DTD/svg11.dtd"><svg t="1653925786117" class="icon" viewBox="0 0 1024 1024" version="1.1" xmlns="http://www.w3.org/2000/svg" p-id="3060" xmlns:xlink="http://www.w3.org/1999/xlink" width="200" height="200"><defs><style type="text/css">@font-face { font-family: feedback-iconfont; src: url("//at.alicdn.com/t/font_1031158_u69w8yhxdu.woff2?t=1630033759944") format("woff2"), url("//at.alicdn.com/t/font_1031158_u69w8yhxdu.woff?t=1630033759944") format("woff"), url("//at.alicdn.com/t/font_1031158_u69w8yhxdu.ttf?t=1630033759944") format("truetype"); }
</style></defs><path d="M512 384v149.333333h-42.666667V384z" p-id="3061"></path><path d="M490.666667 512v42.666667H213.333333v-42.666667z" p-id="3062"></path><path d="M853.333333 512v42.666667h-384v-42.666667zM213.333333 512v170.666667H170.666667v-170.666667zM1024 640h-384v384h384v-384z m-42.666667 42.666667v298.666666h-298.666666v-298.666666h298.666666z" p-id="3063"></path><path d="M384 640H0v384h384v-384z m-42.666667 42.666667v298.666666H42.666667v-298.666666h298.666666zM682.666667 0H298.666667v384h384V0z m-42.666667 42.666667v298.666666H341.333333V42.666667h298.666667zM853.333333 512v170.666667h-42.666666v-170.666667z" p-id="3064"></path><path d="M270.250667 716.928a21.333333 21.333333 0 0 1 32.64 27.221333l-2.474667 2.944-193.28 193.28a21.333333 21.333333 0 0 1-32.682667-27.178666l2.474667-2.986667 193.28-193.28z" p-id="3065"></path><path d="M76.928 716.928a21.333333 21.333333 0 0 1 27.221333-2.474667l2.944 2.474667 193.28 193.28a21.333333 21.333333 0 0 1-27.178666 32.682667l-2.986667-2.474667-193.28-193.322667a21.333333 21.333333 0 0 1 0-30.165333zM923.562667 778.538667a21.333333 21.333333 0 0 1 32.64 27.221333l-2.432 2.944-119.466667 119.466667a21.333333 21.333333 0 0 1-27.221333 2.474666l-2.986667-2.474666-79.658667-79.658667a21.333333 21.333333 0 0 1 27.221334-32.64l2.986666 2.474667 64.554667 64.554666 104.362667-104.362666z" p-id="3066"></path></svg>