<svg id="图层_1" data-name="图层 1" xmlns="http://www.w3.org/2000/svg" viewBox="0 0 16 16"><defs></defs><path d="M7.58,16.49l-.28,0a8.43,8.43,0,0,1-2.9-.78l-.25-.12-.32-2.7L1.1,13,1,12.74A8.63,8.63,0,0,1-.27,10l-.06-.27,1.93-2L-.18,5.68l.08-.26A8.85,8.85,0,0,1,1.29,2.77l.18-.22,2.71.3L4.69.16,5,.06a8.54,8.54,0,0,1,3-.56h.27L9.65,1.81,12.06.54l.24.13a8.15,8.15,0,0,1,2.29,2l.17.21-.89,2.58,2.51,1.09,0,.28A10.21,10.21,0,0,1,16.5,8a.5.5,0,0,1-1,0,7.33,7.33,0,0,0,0-.79L12.63,6l1-2.92A7.18,7.18,0,0,0,12,1.68L9.29,3.13,7.64.51A7.29,7.29,0,0,0,5.57.9L5,4,1.92,3.61a7.82,7.82,0,0,0-1,1.85L3,7.81.78,10A7.58,7.58,0,0,0,1.62,12l3.09-.12.36,3.07a7.15,7.15,0,0,0,2,.54l.49-.66a.51.51,0,0,1,.7-.11.5.5,0,0,1,.1.7Z"/><path class="cls-1" d="M8,11.5A3.5,3.5,0,1,1,11.5,8a.5.5,0,0,1-1,0A2.5,2.5,0,1,0,8,10.5a.5.5,0,0,1,0,1Z"/><path class="cls-1" d="M16,10H9.5a.5.5,0,0,1,0-1H16a.5.5,0,0,1,0,1Z"/><path class="cls-1" d="M16,14H9.5a.5.5,0,0,1,0-1H16a.5.5,0,0,1,0,1Z"/><path class="cls-1" d="M16,12H9.5a.5.5,0,0,1,0-1H16a.5.5,0,0,1,0,1Z"/><path class="cls-1" d="M16,16H9.5a.5.5,0,0,1,0-1H16a.5.5,0,0,1,0,1Z"/></svg>