<svg xmlns="http://www.w3.org/2000/svg" width="16.423" height="17.015" viewBox="0 0 16.423 17.015">
  <g id="数据管理" transform="translate(-0.009 -0.003)">
    <path id="路径" d="M0,12.3a2.509,2.509,0,0,0,2.189,2.64l.118,0H5.646a.606.606,0,0,0,.071-1.208l-.071,0H2.307A1.274,1.274,0,0,1,1.216,12.4l0-.1V2.643A1.334,1.334,0,0,1,2.231,1.216l.076,0H13.074a1.274,1.274,0,0,1,1.09,1.326l0,.1V6.13a.606.606,0,0,0,1.209.07l0-.071V2.643A2.508,2.508,0,0,0,13.191,0l-.118,0H2.306A2.47,2.47,0,0,0,0,2.513l0,.13Z" transform="translate(0.009 0.003)" fill="#409eff"/>
    <path id="形状" d="M.3,9.491A.605.605,0,0,1,0,8.967V3.5a.606.606,0,0,1,1.212,0V8.967A.605.605,0,0,1,.3,9.491ZM2.851,7.268V.607a.606.606,0,1,1,1.212,0V7.268a.606.606,0,0,1-1.212,0ZM6,3.171a.607.607,0,0,1-.3-.526V1.289a.606.606,0,0,1,1.212,0V2.645A.606.606,0,0,1,6,3.171Zm2.547-.7v-.5a.607.607,0,1,1,1.213,0v.5h0a.607.607,0,1,1-1.213,0Z" transform="translate(2.805 2.686)" fill="#409eff"/>
    <path id="减去_93" data-name="减去 93" d="M10884.874,15180.671h-.076a.606.606,0,0,1-.605-.605v-.7a3.543,3.543,0,0,1-1.413-.563l-.477.476a.606.606,0,0,1-.861,0l-.053-.053a.606.606,0,0,1,0-.857l.468-.469a3.472,3.472,0,0,1-.594-1.421h-.655a.607.607,0,0,1-.606-.605v-.076a.608.608,0,0,1,.606-.606h.655a3.6,3.6,0,0,1,.6-1.421l-.472-.469a.609.609,0,0,1,0-.86l.057-.054a.6.6,0,0,1,.427-.177.608.608,0,0,1,.431.177l.479.483a3.608,3.608,0,0,1,1.41-.563v-.7a.606.606,0,0,1,.605-.605h.076a.607.607,0,0,1,.606.605v.721a3.515,3.515,0,0,1,1.367.586l.522-.525a.607.607,0,0,1,.856,0l.058.054a.609.609,0,0,1,0,.86l-.533.53a3.6,3.6,0,0,1,.556,1.355h.759a.608.608,0,0,1,.605.61v.076a.606.606,0,0,1-.605.605h-.759a3.543,3.543,0,0,1-.556,1.36l.533.529a.606.606,0,0,1,0,.857l-.058.053a.6.6,0,0,1-.856,0l-.519-.518a3.6,3.6,0,0,1-1.371.59v.713A.607.607,0,0,1,10884.874,15180.671Zm-.1-7.314a2.543,2.543,0,0,0,0,5.086h.038a2.543,2.543,0,1,0-.006-5.086Z" transform="translate(-10873.739 -15164.153)" fill="#409eff" stroke="rgba(0,0,0,0)" stroke-miterlimit="10" stroke-width="1"/>
  </g>
</svg>
