<svg id="图层_1" data-name="图层 1" xmlns="http://www.w3.org/2000/svg" viewBox="0 0 16 16"><defs></defs><path d="M12.5,5a.5.5,0,0,0-.5.5v9.28a.22.22,0,0,1-.22.22H4.22A.22.22,0,0,1,4,14.78V5.5a.5.5,0,0,0-1,0v9.28A1.22,1.22,0,0,0,4.22,16h7.56A1.22,1.22,0,0,0,13,14.78V5.5A.5.5,0,0,0,12.5,5Z"/><path class="cls-1" d="M13.5,3H13V.5a.5.5,0,0,0-.5-.5h-9A.5.5,0,0,0,3,.5V3H2.5a.5.5,0,0,0,0,1h11a.5.5,0,0,0,0-1ZM4,1h8V3H4Z"/><path class="cls-1" d="M6,13.5v-8a.5.5,0,0,0-1,0v8a.5.5,0,0,0,1,0Z"/><path class="cls-1" d="M8.5,13.5v-8a.5.5,0,0,0-1,0v8a.5.5,0,0,0,1,0Z"/><path class="cls-1" d="M11,13.5v-8a.5.5,0,0,0-1,0v8a.5.5,0,0,0,1,0Z"/></svg>