<svg xmlns="http://www.w3.org/2000/svg" width="13.946" height="16.087" viewBox="0 0 13.946 16.087">
  <path id="派工管理" d="M12.569,15.405V1.276H1.291V14.639h7.92a.681.681,0,1,1,0,1.362H.688A.675.675,0,0,1,0,15.32V.6A.585.585,0,0,1,.6,0H13.172a.919.919,0,0,1,.775.6v14.81a.689.689,0,0,1-1.378,0ZM8.695,11.916a.663.663,0,0,1,0-.937l.345-.34H2.84a.681.681,0,1,1,0-1.362h7.748c.173,0,.345,0,.431.256a.662.662,0,0,1,0,.936L9.556,11.916a.63.63,0,0,1-.861,0ZM2.84,7.405a.648.648,0,0,1-.6-.426V6.724A.651.651,0,0,1,2.41,6.3L3.874,4.851a.675.675,0,0,1,.861-.085.662.662,0,0,1,0,.936l-.345.341H10.5a.681.681,0,1,1,0,1.362Z" fill="#fff"/>
</svg>
