<svg xmlns="http://www.w3.org/2000/svg" viewBox="0 0 14 16"><g id="图层_2" data-name="图层 2"><g id="图层_1-2" data-name="图层 1"><path d="M13.5,16H2.5a.5.5,0,0,1-.5-.5v-4a.5.5,0,0,1,1,0V15H13V3.71L10.29,1H3V3.5a.5.5,0,0,1-1,0V.5A.5.5,0,0,1,2.5,0h8a.47.47,0,0,1,.35.15l3,3A.47.47,0,0,1,14,3.5v12A.5.5,0,0,1,13.5,16Z"/><path d="M13.5,4h-3a.5.5,0,0,1-.5-.5V1a.5.5,0,0,1,1,0V3h2.5a.5.5,0,0,1,0,1Z"/><path d="M5.5,8h-4a.5.5,0,0,1,0-1h4a.5.5,0,0,1,0,1Z"/><path d="M.5,8a.47.47,0,0,1-.35-.15.48.48,0,0,1,0-.7l2-2a.49.49,0,1,1,.7.7l-2,2A.47.47,0,0,1,.5,8Z"/><path d="M2.5,10a.47.47,0,0,1-.35-.15l-2-2a.48.48,0,0,1,0-.7.48.48,0,0,1,.7,0l2,2a.48.48,0,0,1,0,.7A.47.47,0,0,1,2.5,10Z"/><path d="M11,6H5A.5.5,0,0,1,5,5h6a.5.5,0,0,1,0,1Z"/><path d="M11.11,10H6.39A.46.46,0,0,1,6,9.5.46.46,0,0,1,6.39,9h4.72a.46.46,0,0,1,.39.5A.46.46,0,0,1,11.11,10Z"/><path d="M11,14H5a.5.5,0,0,1,0-1h6a.5.5,0,0,1,0,1Z"/></g></g></svg>