<?xml version="1.0" standalone="no"?><!DOCTYPE svg PUBLIC "-//W3C//DTD SVG 1.1//EN" "http://www.w3.org/Graphics/SVG/1.1/DTD/svg11.dtd"><svg t="1653925805194" class="icon" viewBox="0 0 1303 1024" version="1.1" xmlns="http://www.w3.org/2000/svg" p-id="3473" xmlns:xlink="http://www.w3.org/1999/xlink" width="254.4921875" height="200"><defs><style type="text/css">@font-face { font-family: feedback-iconfont; src: url("//at.alicdn.com/t/font_1031158_u69w8yhxdu.woff2?t=1630033759944") format("woff2"), url("//at.alicdn.com/t/font_1031158_u69w8yhxdu.woff?t=1630033759944") format("woff"), url("//at.alicdn.com/t/font_1031158_u69w8yhxdu.ttf?t=1630033759944") format("truetype"); }
</style></defs><path d="M751.895273 0c36.212364 0 65.582545 29.370182 65.582545 65.629091a23.272727 23.272727 0 0 1-46.173091 4.189091l-0.418909-4.189091a19.083636 19.083636 0 0 0-15.173818-18.664727L751.895273 46.545455H65.582545a19.083636 19.083636 0 0 0-18.618181 15.220363L46.545455 65.582545v934.167273a23.272727 23.272727 0 0 1-46.173091 4.189091L0 999.796364V65.629091A65.629091 65.629091 0 0 1 59.252364 0.325818L65.582545 0h686.312728zM1008.826182 154.158545c34.071273 0 62.091636 26.065455 65.303273 59.29891l0.279272 6.330181v111.848728a23.272727 23.272727 0 0 1-46.173091 4.189091l-0.372363-4.189091V219.787636a19.083636 19.083636 0 0 0-15.220364-18.664727l-3.816727-0.418909h-214.667637a23.272727 23.272727 0 0 1-4.18909-46.173091l4.18909-0.372364h214.667637z" p-id="3474"></path><path d="M794.205091 51.386182a23.272727 23.272727 0 0 1 22.853818 19.083636l0.418909 4.189091v102.772364a23.272727 23.272727 0 0 1-46.173091 4.189091l-0.418909-4.189091V74.658909a23.272727 23.272727 0 0 1 23.272727-23.272727zM1256.727273 411.136H217.972364a76.334545 76.334545 0 0 0-73.634909 56.226909L0.837818 993.652364a23.272727 23.272727 0 0 0 22.434909 29.370181h1043.130182c31.837091 0 59.717818-21.271273 68.096-51.991272l144.663273-530.478546A23.272727 23.272727 0 0 0 1256.727273 411.136z m-30.487273 46.545455L1089.629091 958.789818l-1.396364 3.723637a24.064 24.064 0 0 1-21.829818 13.963636H53.713455l135.493818-496.826182a29.789091 29.789091 0 0 1 28.765091-21.969454h1008.267636z" p-id="3475"></path></svg>