<svg xmlns="http://www.w3.org/2000/svg" width="18.678" height="18.511" viewBox="0 0 18.678 18.511">
  <g id="组_1353" data-name="组 1353" transform="translate(361.831 -549.809)">
    <path id="路径_2320" data-name="路径 2320" d="M-343.345,557.736l-8.766-7.782a.573.573,0,0,0-.76,0l-8.768,7.782a.574.574,0,0,0-.048.808.572.572,0,0,0,.428.192.571.571,0,0,0,.38-.144l8.388-7.445,8.386,7.445a.574.574,0,0,0,.808-.048A.573.573,0,0,0-343.345,557.736Z" transform="translate(0 0)" fill="#fff"/>
    <path id="路径_2321" data-name="路径 2321" d="M-346.009,556.815a.573.573,0,0,0-.572.572v8.294a.441.441,0,0,1-.369.48h-3.068v-4.024a.572.572,0,0,0-.572-.572h-4.323a.573.573,0,0,0-.572.572v4.024h-3.036a.442.442,0,0,1-.37-.48v-8.294a.573.573,0,0,0-.572-.572.572.572,0,0,0-.572.572v8.294a1.574,1.574,0,0,0,1.515,1.625h11.572a1.574,1.574,0,0,0,1.513-1.625v-8.294A.572.572,0,0,0-346.009,556.815Zm-8.332,5.895h3.178v3.452h-3.178Z" transform="translate(0.26 1.014)" fill="#fff"/>
  </g>
</svg>
