<svg xmlns="http://www.w3.org/2000/svg" xmlns:xlink="http://www.w3.org/1999/xlink" width="83.564" height="78.719" viewBox="0 0 83.564 78.719">
  <defs>
    <style>
      .cls-1 {
        fill: url(#linear-gradient);
      }
    </style>
    <linearGradient id="linear-gradient" x1="-0.345" y1="-0.175" x2="1" y2="1.032" gradientUnits="objectBoundingBox">
      <stop offset="0" stop-color="#fc0e3e"/>
      <stop offset="1" stop-color="#fff"/>
    </linearGradient>
  </defs>
  <g id="组_2260" data-name="组 2260" transform="translate(741.045 -596.492)">
    <rect id="矩形_458" data-name="矩形 458" class="cls-1" width="16.272" height="67.775" transform="translate(-673.753 607.435)"/>
    <rect id="矩形_459" data-name="矩形 459" class="cls-1" width="16.272" height="50.711" transform="translate(-694.274 624.499)"/>
    <rect id="矩形_460" data-name="矩形 460" class="cls-1" width="16.272" height="35.457" transform="translate(-715.776 639.754)"/>
    <rect id="矩形_461" data-name="矩形 461" class="cls-1" width="16.272" height="18.937" transform="translate(-737.177 656.273)"/>
    <path id="路径_2537" data-name="路径 2537" class="cls-1" d="M-678.846,599.388c.011-.022.016-.046.027-.068a1.979,1.979,0,0,0,.08-.2c.021-.059.041-.118.055-.178s.024-.122.033-.185a2.03,2.03,0,0,0,.022-.212c0-.025.007-.049.007-.074s-.008-.068-.01-.1a2,2,0,0,0-.021-.21c-.01-.062-.023-.123-.039-.184a1.843,1.843,0,0,0-.056-.182,1.918,1.918,0,0,0-.075-.179c-.027-.057-.057-.112-.09-.166s-.068-.105-.105-.156-.08-.1-.124-.15-.088-.091-.135-.134-.094-.082-.145-.119a2.055,2.055,0,0,0-.178-.117c-.029-.017-.054-.04-.085-.056s-.046-.016-.068-.027a2.023,2.023,0,0,0-.2-.08c-.059-.021-.118-.041-.178-.055s-.122-.024-.185-.034a2.013,2.013,0,0,0-.211-.021c-.025,0-.049-.008-.074-.008H-704a1.98,1.98,0,0,0-1.98,1.98,1.98,1.98,0,0,0,1.98,1.98h19.972c-14.4,22.915-55.483,43.491-55.914,43.705a1.98,1.98,0,0,0-.894,2.654,1.979,1.979,0,0,0,1.775,1.1,1.968,1.968,0,0,0,.878-.207C-736.3,646.773-691.994,624.581-678.846,599.388Z" transform="translate(0 0)"/>
  </g>
</svg>
