<svg xmlns="http://www.w3.org/2000/svg" xmlns:xlink="http://www.w3.org/1999/xlink" width="81.722" height="81.722" viewBox="0 0 81.722 81.722">
  <defs>
    <style>
      .cls-1 {
        fill: url(#linear-gradient);
      }
    </style>
    <linearGradient id="linear-gradient" x1="0.137" y1="0.106" x2="0.907" y2="0.893" gradientUnits="objectBoundingBox">
      <stop offset="0" stop-color="#10b6ff"/>
      <stop offset="1" stop-color="#fff"/>
    </linearGradient>
  </defs>
  <g id="组_2261" data-name="组 2261" transform="translate(752.17 -823.057)">
    <path id="路径_2538" data-name="路径 2538" class="cls-1" d="M-711.309,823.057a40.861,40.861,0,0,0-40.861,40.861,40.861,40.861,0,0,0,40.861,40.861,40.86,40.86,0,0,0,40.861-40.861A40.86,40.86,0,0,0-711.309,823.057Zm0,78.765a37.9,37.9,0,0,1-37.9-37.9,37.905,37.905,0,0,1,37.9-37.9,37.9,37.9,0,0,1,37.9,37.9A37.9,37.9,0,0,1-711.309,901.822Z"/>
    <path id="路径_2539" data-name="路径 2539" class="cls-1" d="M-706.77,832.51a35.947,35.947,0,0,0-35.947,35.947A35.947,35.947,0,0,0-706.77,904.4a35.946,35.946,0,0,0,35.947-35.947A35.947,35.947,0,0,0-706.77,832.51Zm22.545,41.1h-25.63a2.983,2.983,0,0,1-2.983-2.983V841.963a2.983,2.983,0,0,1,2.983-2.983,2.983,2.983,0,0,1,2.983,2.983v25.68h22.647a2.984,2.984,0,0,1,2.983,2.984A2.983,2.983,0,0,1-684.225,873.61Z" transform="translate(-4.539 -4.539)"/>
  </g>
</svg>
