<svg xmlns="http://www.w3.org/2000/svg" width="62.352" height="45.943" viewBox="0 0 62.352 45.943">
  <g id="编组" transform="translate(0)">
    <path id="形状" d="M4.178,41.843a13.739,13.739,0,0,1-.038-19.7,14.221,14.221,0,0,1,9.808-4.173,19.673,19.673,0,0,1,33-12.7l.151.111a3.969,3.969,0,0,1,.444.4,2.421,2.421,0,0,1,.821,1.756,2.008,2.008,0,0,1-.605,1.447,2.2,2.2,0,0,1-3.272-.273,1.642,1.642,0,0,1-.375-.368l-.222-.219A15.421,15.421,0,0,0,33.523,4.21,15.232,15.232,0,0,0,18.2,19.367v.439a2.033,2.033,0,0,1-.486,1.72,1.943,1.943,0,0,1-1.416.7h-1.94a9.958,9.958,0,1,0-.035,19.914h3.43a2.1,2.1,0,0,1,1.527.66,1.476,1.476,0,0,1,.412,1.134,2.057,2.057,0,0,1-2.09,2.013H14.229A14.292,14.292,0,0,1,4.178,41.843ZM27,45.724a3.473,3.473,0,0,1-1.864-1.833,3.136,3.136,0,0,1-.075-2.524A3.5,3.5,0,0,1,28.3,39.244,3.322,3.322,0,0,1,29.5,39.5a2.666,2.666,0,0,1,1.6,1.245h4.4a1.083,1.083,0,0,0,.783-.329L44,32.876a2.646,2.646,0,0,1,1.865-.735H55.971a3.346,3.346,0,1,1,2.983,4.76,3.306,3.306,0,0,1-2.386-1.023l-.112-.038H46.91a1.39,1.39,0,0,0-.895.439l-7.568,7.543a2.528,2.528,0,0,1-1.867.769H30.986a3.238,3.238,0,0,1-2.759,1.353A3.635,3.635,0,0,1,27,45.724Zm23.155-3.15a3.375,3.375,0,0,1,3.394-3.33h0a3.433,3.433,0,0,1,2.417.972,3.234,3.234,0,0,1,.978,2.357,3.395,3.395,0,0,1-6.789,0Zm-11.6-10.833a3.276,3.276,0,0,1-2.759-1.5H31.175a3.243,3.243,0,0,1-2.76,1.466,3.353,3.353,0,0,1-3.469-3.368A3.285,3.285,0,0,1,28.34,25a3.177,3.177,0,0,1,2.76,1.39h4.734a3.394,3.394,0,0,1,2.688-1.353,3.351,3.351,0,1,1,.072,6.7Zm16.259-4.8h-.037a3.5,3.5,0,0,1-2.685-1.356H48.139a1.2,1.2,0,0,1-.818-.365l-6.675-6.554a1.093,1.093,0,0,0-.783-.328H33.188a3.3,3.3,0,0,1-2.8,1.5,3.473,3.473,0,0,1-2.649-1.134A3.571,3.571,0,0,1,27,15.888a3.33,3.33,0,0,1,3.354-2.747A3.471,3.471,0,0,1,33.076,14.5h7.831a2.648,2.648,0,0,1,1.864.731l.746.732,5.555,5.346a1.219,1.219,0,0,0,.783.292h2.128a3.26,3.26,0,0,1,2.8-1.463,3.494,3.494,0,0,1,2.646,1.17,3.654,3.654,0,0,1,.747,2.857,3.359,3.359,0,0,1-3.355,2.781Z" transform="translate(0)" fill="#fff"/>
  </g>
</svg>
