<?xml version="1.0" standalone="no"?><!DOCTYPE svg PUBLIC "-//W3C//DTD SVG 1.1//EN" "http://www.w3.org/Graphics/SVG/1.1/DTD/svg11.dtd"><svg t="1653925768779" class="icon" viewBox="0 0 1024 1024" version="1.1" xmlns="http://www.w3.org/2000/svg" p-id="2650" xmlns:xlink="http://www.w3.org/1999/xlink" width="200" height="200"><defs><style type="text/css">@font-face { font-family: feedback-iconfont; src: url("//at.alicdn.com/t/font_1031158_u69w8yhxdu.woff2?t=1630033759944") format("woff2"), url("//at.alicdn.com/t/font_1031158_u69w8yhxdu.woff?t=1630033759944") format("woff"), url("//at.alicdn.com/t/font_1031158_u69w8yhxdu.ttf?t=1630033759944") format("truetype"); }
</style></defs><path d="M774.016 0c41.728 0 75.946667 32.213333 79.061333 73.130667l0.256 6.186666V277.333333a21.333333 21.333333 0 0 1-42.325333 3.84L810.666667 277.333333V79.317333c0-18.688-13.952-34.133333-32.042667-36.352L773.973333 42.666667H79.317333c-18.688 0-34.133333 13.952-36.352 32.042666L42.666667 79.36v865.365333c0 18.688 13.952 34.133333 32.042666 36.352L79.36 981.333333h694.698667c18.688 0 34.133333-13.952 36.352-32.042666L810.666667 944.64V746.666667a21.333333 21.333333 0 0 1 42.325333-3.84l0.341333 3.84v198.016c0 41.728-32.213333 75.946667-73.130666 79.061333l-6.186667 0.256H79.317333c-41.728 0-75.946667-32.213333-79.061333-73.130667L0 944.682667V79.317333C0 37.589333 32.213333 3.370667 73.130667 0.256L79.317333 0h694.698667z" p-id="2651"></path><path d="M981.333333 490.666667a21.333333 21.333333 0 0 1 3.84 42.325333L981.333333 533.333333H298.666667a21.333333 21.333333 0 0 1-3.84-42.325333L298.666667 490.666667h682.666666z" p-id="2652"></path><path d="M751.36 328.021333a21.333333 21.333333 0 0 1 26.752-5.461333l3.2 2.133333 213.333333 170.666667a21.333333 21.333333 0 0 1-23.466666 35.413333l-3.157334-2.133333-213.333333-170.666667a21.333333 21.333333 0 0 1-3.328-29.952z" p-id="2653"></path><path d="M968.021333 495.36a21.333333 21.333333 0 0 1 29.44 30.634667l-2.816 2.645333-213.333333 170.666667a21.333333 21.333333 0 0 1-29.44-30.634667l2.816-2.645333 213.333333-170.666667z" p-id="2654"></path></svg>