<svg id="图层_1" data-name="图层 1" xmlns="http://www.w3.org/2000/svg" viewBox="0 0 16 16"><path d="M8,15a7,7,0,1,1,7-7,.5.5,0,0,1-.5.5A.5.5,0,0,1,14,8a6,6,0,1,0-6,6,.5.5,0,0,1,0,1Z"/><path d="M14.54,8.5a.47.47,0,0,1-.3-.1L12.19,6.9a.5.5,0,0,1-.11-.69.49.49,0,0,1,.7-.11l1.7,1.24,1.16-1.19a.51.51,0,0,1,.71,0,.5.5,0,0,1,0,.71l-1.47,1.5A.47.47,0,0,1,14.54,8.5Z"/><path d="M7.48,10A.5.5,0,0,1,7,9.5v-4a.5.5,0,0,1,.5-.5.5.5,0,0,1,.5.5v4A.5.5,0,0,1,7.48,10Z"/><path d="M10.49,10h-3a.5.5,0,0,1,0-1h3a.5.5,0,0,1,0,1Z"/></svg>