<svg id="图层_1" data-name="图层 1" xmlns="http://www.w3.org/2000/svg" viewBox="0 0 16 16"><defs></defs><path d="M8.46,10.52a3,3,0,0,1-2.14-.84,3,3,0,0,1-.83-1.86A.51.51,0,0,1,6,7.28a.5.5,0,0,1,.54.46A1.91,1.91,0,0,0,7,9a2.12,2.12,0,0,0,1.74.54,3.56,3.56,0,0,0,2.06-1l2.81-2.81a3.49,3.49,0,0,0,1-2.06,2.09,2.09,0,0,0-.53-1.74c-.91-.91-2.62-.68-3.8.51L7.54,5.17a.5.5,0,0,1-.71-.71L9.64,1.65c1.58-1.57,3.91-1.8,5.21-.5a3,3,0,0,1,.83,2.55,4.52,4.52,0,0,1-1.33,2.66L11.54,9.17A4.55,4.55,0,0,1,8.88,10.5,3,3,0,0,1,8.46,10.52Z"/><path class="cls-1" d="M3.29,15.7a2.93,2.93,0,0,1-2.14-.85c-1.3-1.29-1.07-3.63.5-5.21L4.46,6.83C6,5.25,8.38,5,9.68,6.32a3,3,0,0,1,.84,2,.49.49,0,0,1-.48.51.48.48,0,0,1-.52-.48A2,2,0,0,0,9,7c-.91-.91-2.61-.68-3.8.51L2.36,10.35c-1.19,1.18-1.41,2.89-.51,3.8a2.11,2.11,0,0,0,1.74.53,3.49,3.49,0,0,0,2.06-1l2.81-2.81a.5.5,0,0,1,.71,0,.5.5,0,0,1,0,.71L6.36,14.35A4.52,4.52,0,0,1,3.7,15.68Z"/></svg>