<?xml version="1.0" standalone="no"?><!DOCTYPE svg PUBLIC "-//W3C//DTD SVG 1.1//EN" "http://www.w3.org/Graphics/SVG/1.1/DTD/svg11.dtd"><svg t="1653925671452" class="icon" viewBox="0 0 1144 1024" version="1.1" xmlns="http://www.w3.org/2000/svg" p-id="1973" xmlns:xlink="http://www.w3.org/1999/xlink" width="223.4375" height="200"><defs><style type="text/css">@font-face { font-family: feedback-iconfont; src: url("//at.alicdn.com/t/font_1031158_u69w8yhxdu.woff2?t=1630033759944") format("woff2"), url("//at.alicdn.com/t/font_1031158_u69w8yhxdu.woff?t=1630033759944") format("woff"), url("//at.alicdn.com/t/font_1031158_u69w8yhxdu.ttf?t=1630033759944") format("truetype"); }
</style></defs><path d="M1124.472471 327.378824a36.562824 36.562824 0 0 0-52.043295 9.035294l-97.28 140.589176C962.198588 211.847529 749.086118 0 488.207059 0 219.015529 0 0 225.400471 0 502.362353c0 277.082353 219.015529 502.362353 488.207059 502.362353 20.600471 0 37.345882-17.167059 37.345882-38.369882a37.888 37.888 0 0 0-37.345882-38.430118c-228.050824 0-413.575529-190.945882-413.57553-425.562353 0-234.616471 185.524706-425.502118 413.57553-425.502118 223.111529 0 405.082353 182.934588 412.852706 410.563765L806.550588 337.739294a36.743529 36.743529 0 0 0-51.561412-11.38447 39.152941 39.152941 0 0 0-11.023058 53.187764l156.129882 247.627294c6.746353 10.661647 18.130824 17.227294 30.479059 17.468236h0.843294c12.047059 0 23.371294-5.963294 30.418823-16.082824l171.369412-247.627294a39.152941 39.152941 0 0 0-8.794353-53.609412" p-id="1974"></path></svg>