<svg id="图层_1" data-name="图层 1" xmlns="http://www.w3.org/2000/svg" viewBox="0 0 16 16"><path d="M15.92,12h0L14.26,8a1.09,1.09,0,0,0-1-.61h-.34V1.47a.54.54,0,0,0-1.07,0V7.38H8.52V1.47a.54.54,0,0,0-1.07,0V7.38H4V1.47A.5.5,0,0,0,3.45,1a.5.5,0,0,0-.53.47V7.38H2.71a1.08,1.08,0,0,0-1,.61L0,11.94H0a1.76,1.76,0,0,0-.06.4A1.77,1.77,0,0,0,1.85,14H14.12A1.76,1.76,0,0,0,16,12.35,1.34,1.34,0,0,0,15.92,12ZM2.71,8.33H13.26l1,2.38-.16,0H1.85l-.16,0Zm11.41,4.72H1.85a.71.71,0,1,1,0-1.41H14.12a.71.71,0,1,1,0,1.41Z"/></svg>