<?xml version="1.0" standalone="no"?><!DOCTYPE svg PUBLIC "-//W3C//DTD SVG 1.1//EN" "http://www.w3.org/Graphics/SVG/1.1/DTD/svg11.dtd"><svg t="1653925689414" class="icon" viewBox="0 0 1024 1024" version="1.1" xmlns="http://www.w3.org/2000/svg" p-id="2244" xmlns:xlink="http://www.w3.org/1999/xlink" width="200" height="200"><defs><style type="text/css">@font-face { font-family: feedback-iconfont; src: url("//at.alicdn.com/t/font_1031158_u69w8yhxdu.woff2?t=1630033759944") format("woff2"), url("//at.alicdn.com/t/font_1031158_u69w8yhxdu.woff?t=1630033759944") format("woff"), url("//at.alicdn.com/t/font_1031158_u69w8yhxdu.ttf?t=1630033759944") format("truetype"); }
</style></defs><path d="M901.12 21.617778c35.84 0 64.967111 29.184 64.967111 65.251555v847.928889c0 36.010667-29.127111 65.251556-65.024 65.251556H121.856c-35.84 0-64.967111-29.240889-64.967111-65.251556V86.869333C56.888889 50.801778 85.902222 21.617778 121.856 21.617778H901.12zM284.16 412.956444c-17.237333 0-33.735111-6.826667-45.966222-19.057777a65.308444 65.308444 0 0 1-19.000889-46.08V86.812444H121.856v847.928889h779.377778V86.869333H803.84v260.778667c0 36.067556-29.127111 65.308444-64.967111 65.308444H284.216889z m0-65.194666h454.599111V86.869333h-454.542222v260.892445z m454.542222 260.835555a32.711111 32.711111 0 1 1 0.113778 65.137778H284.16a32.483556 32.483556 0 0 1-32.426667-32.597333c0-17.976889 14.506667-32.540444 32.426667-32.540445h454.542222z" p-id="2245"></path></svg>