<?xml version="1.0" standalone="no"?><!DOCTYPE svg PUBLIC "-//W3C//DTD SVG 1.1//EN" "http://www.w3.org/Graphics/SVG/1.1/DTD/svg11.dtd"><svg t="1658888582419" class="icon" viewBox="0 0 1069 1024" version="1.1" xmlns="http://www.w3.org/2000/svg" p-id="1982" xmlns:xlink="http://www.w3.org/1999/xlink" width="208.7890625" height="200"><defs><style type="text/css">@font-face { font-family: feedback-iconfont; src: url("//at.alicdn.com/t/font_1031158_u69w8yhxdu.woff2?t=1630033759944") format("woff2"), url("//at.alicdn.com/t/font_1031158_u69w8yhxdu.woff?t=1630033759944") format("woff"), url("//at.alicdn.com/t/font_1031158_u69w8yhxdu.ttf?t=1630033759944") format("truetype"); }
</style></defs><path d="M156.369504 0.048081a22.259824 22.259824 0 0 1 21.903667 18.253056L178.629328 22.307906V979.480351a22.259824 22.259824 0 0 1-44.163491 4.006769L134.10968 979.480351V22.307906a22.259824 22.259824 0 0 1 22.259824-22.259825z" p-id="1983"></path><path d="M8.297153 807.634508a22.259824 22.259824 0 0 1 28.492575-0.445197l2.893777 2.760218 133.558946 154.972897a22.259824 22.259824 0 0 1-30.852117 31.876069l-2.893777-2.804738-133.558946-154.972897a22.259824 22.259824 0 0 1 2.359542-31.386352zM913.203531 0.048081a22.259824 22.259824 0 0 1 21.903667 18.253056L935.463355 22.307906V979.480351a22.259824 22.259824 0 0 1-44.163491 4.006769L890.943707 979.480351V22.307906a22.259824 22.259824 0 0 1 22.259824-22.259825z" p-id="1984"></path><path d="M897.933292 6.102753a22.259824 22.259824 0 0 1 28.492575-1.736266l2.982816 2.671179 133.558946 141.795081a22.259824 22.259824 0 0 1-29.382968 33.211658l-3.027336-2.671179-133.558946-141.795081a22.259824 22.259824 0 0 1 0.934913-31.475392z" p-id="1985"></path><path d="M846.424058 44.56773H223.148977v222.598243h623.275081V44.56773z m-44.519649 44.519649v133.558945H267.668626V89.087379h534.235783zM846.424058 356.20527H223.148977v222.598244h623.275081V356.20527z m-44.519649 44.519649v133.558946H267.668626V400.724919h534.235783zM846.424058 712.36246H223.148977v222.598243h623.275081v-222.598243z m-44.519649 44.519648v133.558946H267.668626v-133.558946h534.235783z" p-id="1986"></path></svg>