<?xml version="1.0" standalone="no"?><!DOCTYPE svg PUBLIC "-//W3C//DTD SVG 1.1//EN" "http://www.w3.org/Graphics/SVG/1.1/DTD/svg11.dtd"><svg t="1653925712520" class="icon" viewBox="0 0 1024 1024" version="1.1" xmlns="http://www.w3.org/2000/svg" p-id="2379" xmlns:xlink="http://www.w3.org/1999/xlink" width="200" height="200"><defs><style type="text/css">@font-face { font-family: feedback-iconfont; src: url("//at.alicdn.com/t/font_1031158_u69w8yhxdu.woff2?t=1630033759944") format("woff2"), url("//at.alicdn.com/t/font_1031158_u69w8yhxdu.woff?t=1630033759944") format("woff"), url("//at.alicdn.com/t/font_1031158_u69w8yhxdu.ttf?t=1630033759944") format("truetype"); }
</style></defs><path d="M65.656316 128.905636h139.745554v23.913355c0 22.046066 18.251251 39.935906 40.839433 39.996141h411.04468a40.538258 40.538258 0 0 0 40.899668-39.996141V128.905636h139.625084v285.695327H903.527286V103.606872a39.152849 39.152849 0 0 0-39.27332-38.972144H698.125416V39.998551A40.538258 40.538258 0 0 0 657.165513 0.002409H246.301538a40.538258 40.538258 0 0 0-40.899668 39.996142v24.636177H39.273319A39.152849 39.152849 0 0 0 0 103.606872v881.420984A39.152849 39.152849 0 0 0 39.273319 1024h502.963523v-64.270908H65.776786V128.905636zM271.058186 64.634728h361.410914v63.849261h-361.410914v-63.849261z" p-id="2380"></path><path d="M1014.540672 604.040518a31.743925 31.743925 0 0 0-45.718481 0l-213.834791 219.496895-148.780826-152.635876a31.743925 31.743925 0 0 0-31.32228-9.035273 32.767923 32.767923 0 0 0-23.130298 23.672415 33.731685 33.731685 0 0 0 8.794332 32.286041l171.609949 176.007116c12.649382 12.950558 33.008864 12.950558 45.658246 0l236.724149-242.868135a33.611215 33.611215 0 0 0 0-46.983419zM187.030148 361.413324h412.490324v66.258667H187.030148V361.413324zM180.705457 587.656556h280.093459v66.318903H180.705457v-66.258668z m0 226.303468h188.536027v66.318902H180.705457v-66.258667z" p-id="2381"></path></svg>