<svg xmlns="http://www.w3.org/2000/svg" width="26" height="25.999" viewBox="0 0 26 25.999">
  <path id="减去_7" data-name="减去 7" d="M-1143,13928a12.419,12.419,0,0,1-8.839-3.66,12.421,12.421,0,0,1-3.661-8.84,12.416,12.416,0,0,1,3.662-8.84A12.422,12.422,0,0,1-1143,13903a12.419,12.419,0,0,1,8.84,3.66,12.421,12.421,0,0,1,3.66,8.839,12.421,12.421,0,0,1-3.661,8.84A12.419,12.419,0,0,1-1143,13928Zm0-11.095h0l4.264,4.262a.838.838,0,0,0,.587.244.838.838,0,0,0,.587-.244l.231-.228a.828.828,0,0,0,.244-.591.821.821,0,0,0-.244-.584l-4.261-4.265,4.261-4.264a.828.828,0,0,0,.244-.592.819.819,0,0,0-.244-.583l-.231-.23a.826.826,0,0,0-.587-.244.827.827,0,0,0-.587.244l-4.261,4.268-4.265-4.265a.826.826,0,0,0-.587-.244.827.827,0,0,0-.587.244l-.231.231a.838.838,0,0,0,0,1.174l4.261,4.261-4.261,4.265a.836.836,0,0,0,0,1.175l.231.228a.827.827,0,0,0,.587.243.827.827,0,0,0,.587-.243l4.26-4.262Z" transform="translate(1156 -13902.501)" fill="#b41717" stroke="rgba(0,0,0,0)" stroke-miterlimit="10" stroke-width="1"/>
</svg>
