<svg xmlns="http://www.w3.org/2000/svg" width="16.93" height="16.922" viewBox="0 0 16.93 16.922">
  <g id="组_300" data-name="组 300" transform="translate(-36.498 -281.499)">
    <path id="减去_94" data-name="减去 94" d="M10918.936,15409.921a1.147,1.147,0,0,1-.8-.329l-.809-.793a1.114,1.114,0,0,1,0-1.589l5.971-5.972a5.037,5.037,0,1,1,2.383,2.391l-1.172,1.176.294.29a1.133,1.133,0,0,1,0,1.589l-.8.8a1.123,1.123,0,0,1-1.589,0l-.3-.3-2.395,2.409A1.131,1.131,0,0,1,10918.936,15409.921Zm8.927-14.785a3.922,3.922,0,0,0-3.531,5.6l.348.728-.568.568-5.971,5.972.785.781,2.394-2.406.8-.8.808.812.282.286.777-.781-.282-.282-.8-.8.8-.816,1.176-1.176.568-.568.731.344a3.929,3.929,0,0,0,1.68.379h.055a3.842,3.842,0,0,0,2.736-1.137,3.925,3.925,0,0,0-2.778-6.694Z" transform="translate(-10880 -15112)" fill="#fff" stroke="rgba(0,0,0,0)" stroke-miterlimit="10" stroke-width="1"/>
    <path id="减去_95" data-name="减去 95" d="M10918.7,15397.411a1.707,1.707,0,1,1,1.48-.854A1.706,1.706,0,0,1,10918.7,15397.411Zm0-2.272a.56.56,0,0,0-.525.352.572.572,0,0,0,.529.784.551.551,0,0,0,.286-.081.567.567,0,0,0-.29-1.055Z" transform="translate(-10870.842 -15108.645)" fill="#fff" stroke="rgba(0,0,0,0)" stroke-miterlimit="10" stroke-width="1"/>
  </g>
</svg>
