<?xml version="1.0" standalone="no"?><!DOCTYPE svg PUBLIC "-//W3C//DTD SVG 1.1//EN" "http://www.w3.org/Graphics/SVG/1.1/DTD/svg11.dtd"><svg t="1653925776685" class="icon" viewBox="0 0 1024 1024" version="1.1" xmlns="http://www.w3.org/2000/svg" p-id="2788" xmlns:xlink="http://www.w3.org/1999/xlink" width="200" height="200"><defs><style type="text/css">@font-face { font-family: feedback-iconfont; src: url("//at.alicdn.com/t/font_1031158_u69w8yhxdu.woff2?t=1630033759944") format("woff2"), url("//at.alicdn.com/t/font_1031158_u69w8yhxdu.woff?t=1630033759944") format("woff"), url("//at.alicdn.com/t/font_1031158_u69w8yhxdu.ttf?t=1630033759944") format("truetype"); }
</style></defs><path d="M151.199714 166.692141c2.409351 86.73663 16.202884 348.151194 90.230189 549.091053 42.886445 116.13071 205.035755 215.8176 253.885343 243.705835 48.72912-27.94847 210.998898-127.816061 253.825109-243.705835 74.087538-201.060326 87.760604-462.354423 90.290422-549.091053-168.473856-7.529221-299.120905-74.930811-344.115531-101.192734-44.994627 26.261924-175.701909 93.663513-344.115532 101.192734M495.315246 1023.999398a30.237353 30.237353 0 0 1-13.974235-3.373091c-9.697637-5.059637-238.043861-125.948814-296.350151-284.002229C91.447814 483.100138 90.363606 151.212062 90.363606 137.237828a30.116885 30.116885 0 0 1 30.116885-30.116886C322.38409 107.120942 477.064413 6.048675 478.690725 5.084935a30.418054 30.418054 0 0 1 33.309275 0c1.566078 1.023974 156.186167 102.036007 358.089766 102.036007a30.116885 30.116885 0 0 1 30.116885 30.116886c0 14.034469-1.084208 345.922544-94.627253 599.326017-58.30629 158.113648-286.712748 279.002825-296.350151 284.062462a29.815716 29.815716 0 0 1-13.914001 3.373091" p-id="2789"></path><path d="M451.766229 632.479889a30.297587 30.297587 0 0 1-21.322754-8.854364l-180.701312-180.701312a30.237353 30.237353 0 0 1 42.64551-42.645509L453.994879 562.006377l280.087033-224.069626a30.297587 30.297587 0 0 1 42.404575 4.698234 30.237353 30.237353 0 0 1-4.758468 42.344341l-301.168853 240.935082A29.996418 29.996418 0 0 1 451.766229 632.479889" p-id="2790"></path></svg>