<svg xmlns="http://www.w3.org/2000/svg" width="17.159" height="16.095" viewBox="0 0 17.159 16.095">
  <g id="组_1354" data-name="组 1354" transform="translate(404 -548.73)">
    <path id="路径_2322" data-name="路径 2322" d="M-387.338,564.825h-15.345A1.368,1.368,0,0,1-404,563.413V549.228a.5.5,0,0,1,.5-.5.5.5,0,0,1,.5.5v14.185a.384.384,0,0,0,.322.417h15.345a.5.5,0,0,1,.5.5A.5.5,0,0,1-387.338,564.825Z" fill="#fff"/>
    <path id="路径_2323" data-name="路径 2323" d="M-401.237,561.764a.491.491,0,0,1-.315-.114.5.5,0,0,1-.071-.7l5.113-6.037a.5.5,0,0,1,.679-.088l3.009,2.193,4.145-4.6a.5.5,0,0,1,.7-.1.5.5,0,0,1,.1.7l-4.439,5a.5.5,0,0,1-.693.107l-3.028-2.207-4.814,5.673A.5.5,0,0,1-401.237,561.764Z" transform="translate(-0.01 -0.016)" fill="#fff"/>
  </g>
</svg>
