<svg xmlns="http://www.w3.org/2000/svg" width="35.174" height="37.803" viewBox="0 0 35.174 37.803">
  <path id="联合_90" data-name="联合 90" d="M3.286,36.8A3.289,3.289,0,0,1,0,33.516V8.543A3.289,3.289,0,0,1,3.286,5.257H25.631a3.29,3.29,0,0,1,3.285,3.286V33.516A3.288,3.288,0,0,1,25.631,36.8ZM2.629,8.543V33.516a.658.658,0,0,0,.657.658H25.631a.66.66,0,0,0,.657-.658V8.543a.657.657,0,0,0-.657-.657H3.286A.657.657,0,0,0,2.629,8.543ZM31.545,28.259V3.286a.657.657,0,0,0-.657-.657H8.544A1.314,1.314,0,1,1,8.544,0H30.888a3.289,3.289,0,0,1,3.286,3.286V28.259a1.314,1.314,0,0,1-2.629,0ZM7.886,27.875a1.314,1.314,0,0,1,0-2.629h7.887a1.314,1.314,0,0,1,0,2.629Zm0-6.517a1.314,1.314,0,1,1,0-2.628H21.029a1.314,1.314,0,1,1,0,2.628Zm0-6.571a1.314,1.314,0,0,1,0-2.629H21.029a1.314,1.314,0,1,1,0,2.629Z" transform="translate(0.5 0.5)" stroke="rgba(0,0,0,0)" stroke-miterlimit="10" stroke-width="1"/>
</svg>
