<svg id="图层_1" data-name="图层 1" xmlns="http://www.w3.org/2000/svg" viewBox="0 0 16 16"><path d="M13,16H3a1,1,0,0,1-1-1V2A1,1,0,0,1,3,1H4A.5.5,0,1,1,4,2H3L3,15l10,0V2L12,2a.5.5,0,0,1,0-1h1a1,1,0,0,1,1,1V15A1,1,0,0,1,13,16Z"/><path d="M11.48,6h-5a.5.5,0,0,1,0-1h5a.5.5,0,0,1,0,1Z"/><circle cx="4.48" cy="5.5" r="0.5"/><path d="M11.48,9h-5a.5.5,0,0,1,0-1h5a.5.5,0,0,1,0,1Z"/><circle cx="4.48" cy="8.5" r="0.5"/><path d="M11.48,12h-5a.5.5,0,0,1,0-1h5a.5.5,0,0,1,0,1Z"/><circle cx="4.48" cy="11.5" r="0.5"/><path d="M11.08,3H4.89A.91.91,0,0,1,4,2.09V.91A.91.91,0,0,1,4.89,0h6.19a.9.9,0,0,1,.9.91V2.09A.9.9,0,0,1,11.08,3ZM5,2h6V1H5Z"/></svg>