<svg id="图层_1" data-name="图层 1" xmlns="http://www.w3.org/2000/svg" viewBox="0 0 16 16"><defs><style>.cls-1{fill:#231815;}</style></defs><path class="cls-1" d="M14,15.5H2A1.5,1.5,0,0,1,.5,14V2A1.5,1.5,0,0,1,2,.5H8.64a.5.5,0,0,1,0,1H2a.5.5,0,0,0-.5.5V14a.5.5,0,0,0,.5.5H14a.5.5,0,0,0,.5-.5V7.36a.5.5,0,1,1,1,0V14A1.5,1.5,0,0,1,14,15.5Z"/><path class="cls-1" d="M15.15,2.44,13.6.9a1.49,1.49,0,0,0-2.12,0L4.19,8.19l0,0a.22.22,0,0,0,0,.08.41.41,0,0,0,0,.09v0L3,12.37a.49.49,0,0,0,.12.48A.51.51,0,0,0,3.5,13h.12l4-1,0,0,.09,0,.09-.06,0,0,7.3-7.29A1.51,1.51,0,0,0,15.15,2.44Zm-4.61.81L12.79,5.5,7.5,10.79,5.25,8.54ZM4.8,9.51l1.72,1.72-2.32.58Zm9.64-5.66-.94.94L11.25,2.54l.94-.94a.51.51,0,0,1,.71,0l1.54,1.55A.5.5,0,0,1,14.44,3.85Z"/></svg>