<svg id="图层_1" data-name="图层 1" xmlns="http://www.w3.org/2000/svg" viewBox="0 0 16 16"><defs><style>.cls-1{fill:#231815;}</style></defs><path class="cls-1" d="M10.15,16.23,8,14.24l-2.15,2-.27-.08A8.62,8.62,0,0,1,3.14,15l-.23-.17.22-2.92L.22,11.44l-.1-.26a8.1,8.1,0,0,1-.6-2.63l0-.28L1.92,6.61.47,4.08.6,3.83A8,8,0,0,1,2.29,1.71l.21-.19,2.79.86L6.37-.35l.28,0a8.16,8.16,0,0,1,2.7,0l.28,0,1.08,2.73,2.79-.86.21.19A8,8,0,0,1,15.4,3.83l.13.25L14.08,6.61,16.5,8.27l0,.28a8.1,8.1,0,0,1-.6,2.63l-.1.26-2.91.44.22,2.92-.23.17a8.62,8.62,0,0,1-2.44,1.18ZM8,12.88l2.41,2.22a7.1,7.1,0,0,0,1.64-.79L11.81,11l3.25-.5a7.31,7.31,0,0,0,.4-1.77l-2.7-1.86,1.62-2.84a7.33,7.33,0,0,0-1.13-1.43l-3.13,1L8.91.55a7.91,7.91,0,0,0-1.82,0L5.88,3.6l-3.13-1A7.33,7.33,0,0,0,1.62,4.07L3.24,6.91.54,8.77a7.31,7.31,0,0,0,.4,1.77l3.25.5L4,14.31a7.1,7.1,0,0,0,1.64.79Z"/><path class="cls-1" d="M11.5,5.48h-7A.5.5,0,0,1,4,5a.5.5,0,0,1,.5-.5h7A.5.5,0,0,1,12,5,.5.5,0,0,1,11.5,5.48Z"/><path class="cls-1" d="M8,12a.5.5,0,0,1-.5-.5V5a.5.5,0,0,1,1,0v6.47A.5.5,0,0,1,8,12Z"/></svg>