<svg id="图层_1" data-name="图层 1" xmlns="http://www.w3.org/2000/svg" viewBox="0 0 16 16"><path d="M3.84,2.91h7.3V4.1H3.84Zm0,3.9h7.3V8H3.84Zm0,3.87H7.08v1.18H3.84Z"/><path d="M6.82,14.81H2.08V1.19H12.89V7.64a.54.54,0,1,0,1.08,0h0V1.19A1.13,1.13,0,0,0,12.89,0H2.08A1.14,1.14,0,0,0,1,1.19V14.81A1.14,1.14,0,0,0,2.08,16H6.82a.59.59,0,0,0,0-1.18Z"/><path d="M14.54,14.76,13.1,13.15a3.3,3.3,0,0,0,.44-1.66A3,3,0,0,0,10.7,8.38a3,3,0,0,0-2.84,3.11A3,3,0,0,0,10.7,14.6,2.62,2.62,0,0,0,12.35,14l1.42,1.58a.49.49,0,0,0,.38.18.58.58,0,0,0,.55-.59.63.63,0,0,0-.16-.42ZM10.7,13.41a1.85,1.85,0,0,1-1.76-1.92A1.86,1.86,0,0,1,10.7,9.56a1.86,1.86,0,0,1,1.76,1.93A1.85,1.85,0,0,1,10.7,13.41Z"/></svg>