<svg xmlns="http://www.w3.org/2000/svg" width="13" height="15" viewBox="0 0 13 15">
  <g id="组_3043" data-name="组 3043" transform="translate(-1.5 -0.5)">
    <path id="路径_2647" data-name="路径 2647" d="M14.361,3.672A.5.5,0,0,0,14,3.519a.094.094,0,0,1-.029,0C11.243,3.519,8.384.677,8.355.647A.507.507,0,0,0,8,.5a.5.5,0,0,0-.354.147c-.029.03-2.89,2.872-5.616,2.872H2a.444.444,0,0,0-.363.153.5.5,0,0,0-.14.368,26.819,26.819,0,0,0,.727,4.784.505.505,0,0,0,.606.364A.5.5,0,0,0,3.2,8.582a26.5,26.5,0,0,1-.664-4.089C4.914,4.258,7.152,2.449,8,1.687c.849.762,3.085,2.571,5.466,2.806C13.291,6.577,12.342,14.5,8,14.5a3.773,3.773,0,0,1-3.193-1.965.5.5,0,1,0-.83.557A4.756,4.756,0,0,0,8,15.5c5.926,0,6.479-10.991,6.5-11.459A.5.5,0,0,0,14.361,3.672Z" fill="#1c54bf"/>
    <path id="路径_2648" data-name="路径 2648" d="M10.484,6a2.5,2.5,0,1,0-3,2.449V12.5h1V11h1V10h-1V8.449A2.5,2.5,0,0,0,10.484,6Zm-4,0a1.5,1.5,0,1,1,1.5,1.5A1.5,1.5,0,0,1,6.484,6Z" fill="#1c54bf"/>
  </g>
</svg>
