<svg xmlns="http://www.w3.org/2000/svg" width="28.223" height="29.568" viewBox="0 0 28.223 29.568">
  <path id="路径_2679" data-name="路径 2679" d="M-106.485-4.464a1.344,1.344,0,0,1,1.343,1.345,1.344,1.344,0,0,1-1.343,1.343h-5.376a6.72,6.72,0,0,1-6.72-6.72V-23.28a6.72,6.72,0,0,1,6.72-6.72h10.752a6.72,6.72,0,0,1,6.72,6.72V-17.9a1.344,1.344,0,0,1-1.345,1.343A1.344,1.344,0,0,1-97.077-17.9V-23.28a4.032,4.032,0,0,0-4.032-4.032h-10.752a4.032,4.032,0,0,0-4.032,4.032V-8.5a4.032,4.032,0,0,0,4.032,4.032Zm6.72-10.752h5.376a4.032,4.032,0,0,1,4.032,4.032h0v6.72A4.032,4.032,0,0,1-94.389-.432h-5.376A4.032,4.032,0,0,1-103.8-4.464v-6.72A4.032,4.032,0,0,1-99.765-15.216Zm0,2.688a1.344,1.344,0,0,0-1.344,1.344h0v6.72A1.344,1.344,0,0,0-99.765-3.12h5.376a1.344,1.344,0,0,0,1.344-1.344h0v-6.72a1.344,1.344,0,0,0-1.344-1.344h-5.376Zm-11.855-8.064a1.344,1.344,0,0,1-1.344-1.344,1.344,1.344,0,0,1,1.344-1.344h10.511a1.344,1.344,0,0,1,1.344,1.344,1.344,1.344,0,0,1-1.344,1.344Zm0,6.72a1.344,1.344,0,0,1-1.344-1.344,1.344,1.344,0,0,1,1.344-1.344h6.479a1.344,1.344,0,0,1,1.344,1.344,1.344,1.344,0,0,1-1.344,1.344Zm0,6.72A1.343,1.343,0,0,1-112.963-8.5,1.344,1.344,0,0,1-111.62-9.84h3.791a1.344,1.344,0,0,1,1.343,1.345,1.344,1.344,0,0,1-1.343,1.343Z" transform="translate(118.58 30)"/>
</svg>
