<svg id="图层_1" data-name="图层 1" xmlns="http://www.w3.org/2000/svg" viewBox="0 0 16 16"><defs><style>.cls-1{fill:#231815;}</style></defs><path class="cls-1" d="M8,9.81a1.1,1.1,0,0,1-.56-.16L1.31,5.82a1.05,1.05,0,0,1-.5-.9,1.07,1.07,0,0,1,.5-.9L7.44.19a1.07,1.07,0,0,1,1.12,0L14.69,4a1.07,1.07,0,0,1,.5.9,1.05,1.05,0,0,1-.5.9L8.56,9.65A1.1,1.1,0,0,1,8,9.81Zm0-1H8L14.16,5l.26-.53-.26.43L8,1,1.84,4.87V5Z"/><path class="cls-1" d="M8,12.89a1.1,1.1,0,0,1-.56-.16L1.31,8.9a1.06,1.06,0,0,1,0-1.8A.5.5,0,0,1,1.84,8l-.26.53.26-.43L8,11.88l6.19-3.83A.55.55,0,0,1,14,7.31a.52.52,0,0,1,.69-.21,1.06,1.06,0,0,1,0,1.8L8.56,12.73A1.1,1.1,0,0,1,8,12.89Z"/><path class="cls-1" d="M8,16a1,1,0,0,1-.56-.17L1.31,12a1.05,1.05,0,0,1-.5-.9,1.07,1.07,0,0,1,.5-.9.5.5,0,1,1,.53.85v.1L8,15l6.19-3.83a.55.55,0,0,1-.16-.74.52.52,0,0,1,.69-.21,1.07,1.07,0,0,1,.5.9,1.05,1.05,0,0,1-.5.9L8.56,15.81A1.1,1.1,0,0,1,8,16Z"/></svg>