<svg id="图层_1" data-name="图层 1" xmlns="http://www.w3.org/2000/svg" viewBox="0 0 16 16"><path d="M7.45,7A3.5,3.5,0,1,1,11,3.52,3.5,3.5,0,0,1,7.45,7Zm0-6A2.5,2.5,0,1,0,10,3.52,2.5,2.5,0,0,0,7.45,1Z"/><path d="M13.36,12.92a.5.5,0,0,1-.5-.5,5.41,5.41,0,1,0-10.81,0,.5.5,0,0,1-.5.5.51.51,0,0,1-.5-.5,6.41,6.41,0,1,1,12.81,0A.51.51,0,0,1,13.36,12.92Z"/><path d="M14.45,14.74H3.32a2.26,2.26,0,0,1-2.26-2.26.5.5,0,0,1,1,0,1.25,1.25,0,0,0,1.26,1.26H14.45a.5.5,0,0,1,0,1Z"/><path d="M15,13.17a.5.5,0,0,1-.5-.5c0-4.77-2.15-5.17-2.17-5.17A.52.52,0,0,1,11.9,7a.51.51,0,0,1,.44-.49c.15,0,1.51-.27,1.51-2.5s-2.44-2.49-2.54-2.5A.5.5,0,0,1,10.85,1,.49.49,0,0,1,11.38.5,3.57,3.57,0,0,1,14.85,4a3.55,3.55,0,0,1-1.28,3c.87.67,1.93,2.2,1.93,5.65A.5.5,0,0,1,15,13.17Z"/></svg>