<svg xmlns="http://www.w3.org/2000/svg" xmlns:xlink="http://www.w3.org/1999/xlink" width="88.696" height="79.719" viewBox="0 0 88.696 79.719">
  <defs>
    <style>
      .cls-1 {
        stroke: rgba(0,0,0,0);
        stroke-miterlimit: 10;
        fill: url(#linear-gradient);
      }
    </style>
    <linearGradient id="linear-gradient" x1="0.093" y1="0.036" x2="1.027" y2="1" gradientUnits="objectBoundingBox">
      <stop offset="0" stop-color="#3181f8"/>
      <stop offset="1" stop-color="#c6c8fb" stop-opacity="0.769"/>
    </linearGradient>
  </defs>
  <g id="组_2258" data-name="组 2258" transform="translate(441.495 -606.285)">
    <path id="联合_71" data-name="联合 71" class="cls-1" d="M57.545,74.517A18.39,18.39,0,0,1,67.624,42.049a18.49,18.49,0,0,1,13.49,4.191h0A18.383,18.383,0,0,1,71.054,78.663c-.525.033-1.047.055-1.553.055A18.24,18.24,0,0,1,57.545,74.517Zm6.272-21V64.059l.01.057-.01.052a2.9,2.9,0,0,0,2.9,2.9H77.246a2.894,2.894,0,0,0,0-5.787H69.6V53.521a2.894,2.894,0,0,0-5.788,0ZM5.328,75.157a5.33,5.33,0,0,1,0-10.66h9.741V54.052H10.477A10.48,10.48,0,0,1,0,43.569V10.476A10.473,10.473,0,0,1,10.477,0H65.934A10.478,10.478,0,0,1,76.415,10.476V38.682a25.077,25.077,0,0,0-9.2-1.047,22.759,22.759,0,0,0-15.463,8.112,22.005,22.005,0,0,0-4.351,8.3H25.729V64.5H46.965a22.513,22.513,0,0,0,4.967,10.66Zm8.867-48.135a5.328,5.328,0,0,0,5.328,5.333H56.888a5.33,5.33,0,0,0,0-10.66H19.523A5.328,5.328,0,0,0,14.195,27.022Z" transform="translate(-440.995 606.785)"/>
  </g>
</svg>
