<svg id="图层_1" data-name="图层 1" xmlns="http://www.w3.org/2000/svg" viewBox="0 0 16 16"><path d="M9.75,6H6.3a.78.78,0,0,1-.78-.77V1.77A.78.78,0,0,1,6.3,1H9.75a.78.78,0,0,1,.77.77V5.23A.78.78,0,0,1,9.75,6ZM6.52,5h3V2h-3Z"/><path d="M4.23,15H.78A.77.77,0,0,1,0,14.23V10.77A.77.77,0,0,1,.78,10H4.23a.78.78,0,0,1,.78.77v3.46A.78.78,0,0,1,4.23,15ZM1,14H4V11H1Z"/><path d="M9.75,15H6.3a.78.78,0,0,1-.78-.77V10.77A.78.78,0,0,1,6.3,10H9.75a.78.78,0,0,1,.77.77v3.46A.78.78,0,0,1,9.75,15ZM6.52,14h3V11h-3Z"/><path d="M15.24,15H11.79a.77.77,0,0,1-.77-.77V10.77a.77.77,0,0,1,.77-.77h3.45a.78.78,0,0,1,.78.77v3.46A.78.78,0,0,1,15.24,15ZM12,14h3V11H12Z"/><path d="M14,11a.5.5,0,0,1-.5-.5v-2h-11v2A.5.5,0,0,1,2,11a.5.5,0,0,1-.5-.5V8A.5.5,0,0,1,2,7.5H14a.5.5,0,0,1,.5.5v2.5A.5.5,0,0,1,14,11Z"/><path d="M8,11a.5.5,0,0,1-.5-.5v-5A.5.5,0,0,1,8,5a.5.5,0,0,1,.5.5v5A.5.5,0,0,1,8,11Z"/></svg>